<svg xmlns="http://www.w3.org/2000/svg" width="23.623" height="26.458" viewBox="0 0 23.623 26.458">
  <path id="secure" d="M35.6,3.7a.865.865,0,0,0-.625-.714L24.34.032a.864.864,0,0,0-.463,0L13.242,2.989a.865.865,0,0,0-.625.714c-.062.444-1.469,10.922,2.14,16.135a16.978,16.978,0,0,0,9.147,6.6.867.867,0,0,0,.406,0,16.977,16.977,0,0,0,9.147-6.6C37.067,14.626,35.66,4.147,35.6,3.7ZM30.965,9.821l-7.253,7.253a.864.864,0,0,1-1.223,0L18,12.59a.864.864,0,0,1,0-1.223l.89-.89a.865.865,0,0,1,1.223,0L23.1,13.46l5.752-5.752a.864.864,0,0,1,1.223,0l.89.89A.865.865,0,0,1,30.965,9.821Z" transform="translate(-12.296 -0.001)" fill="#69a03a"/>
</svg>
